<svg height="512" viewBox="0 0 512 512" width="512" xmlns="http://www.w3.org/2000/svg"><path d="m266.743 124.451-121.377-43.119-55.942 14.086-24.1 67.846 15.076 5.356a16 16 0 0 0 20.433-9.721l13.39-37.692 27.972-7.043 75.384 26.78z" fill="#3e8cc7"/><path d="m182.857 128.61 34.72 12.334 49.166-16.493-35.665-12.67a128.46 128.46 0 0 0 -48.221 16.829z" fill="#3474a6"/><path d="m106.187 143.822 15.077 5.356a8 8 0 0 0 10.217-4.86l10.712-30.154-27.972 7.043z" fill="#fdb62f"/><path d="m84.068 110.5 30.153 10.712-13.39 37.688a16 16 0 0 1 -20.431 9.72l-15.077-5.356z" fill="#a8a8a8"/><path d="m488 440h-392l-72-64v-48h392l72 64.001z" fill="#ec9e15"/><path d="m488 392h-392l-72-64h392z" fill="#fdb62f"/><path d="m384.945 392-1.547 3.094a43.051 43.051 0 0 1 -40.698 28.906h-6.7v-16h6.7a27.077 27.077 0 0 0 24.709-15.967z" fill="#d38e14"/><path d="m264 368h-216v-16h232a16 16 0 0 1 -16 16z" fill="#d38e14"/><path d="m237.95 392 10.636-7.445-9.172-13.11-20.211 14.157-8.536 6.398z" fill="#ec9e15"/><path d="m275.312 440 1.376-1.375a49.633 49.633 0 0 1 35.312-14.625v-16a65.528 65.528 0 0 0 -46.625 19.312l-13.24 12.688z" fill="#d38e14"/><path d="m24 328 72 64v48l-72-64z" fill="#f8bb59"/><circle cx="255.965" cy="247.969" fill="#cdcdcd" r="112"/><g fill="#bef5fa"><path d="m115.945 307.117a152.878 152.878 0 0 1 -9.875-33.777l15.782-2.68a135.817 135.817 0 0 0 8.828 30.223z"/><path d="m351.492 366.23-10.047-12.46a134.906 134.906 0 0 0 27.617-30.211l13.313 8.882a151.207 151.207 0 0 1 -30.883 33.789z"/><path d="m104.188 256.785a151.159 151.159 0 0 1 3.765-43.48l15.578 3.664a135.2 135.2 0 0 0 -3.375 38.879z"/></g><path d="m195.789 312.2a87.987 87.987 0 0 1 -27.781-67.469l15.984.594a72.038 72.038 0 0 0 22.735 55.2z" fill="#ebebeb"/><path d="m256.172 336.035a88.566 88.566 0 0 1 -29.664-5.14l5.359-15.079a71.711 71.711 0 0 0 81.61-24.492l12.781 9.633a87.615 87.615 0 0 1 -70.086 35.078z" fill="#ebebeb"/><path d="m384.945 392 3.477-6.957a30.663 30.663 0 0 1 27.578-17.043v-16a46.581 46.581 0 0 0 -41.891 25.887l-5.265 10.535a7.314 7.314 0 0 0 -.43 1.047 26.763 26.763 0 0 1 -1.075 2.531z" fill="#ec9e15"/><path d="m210.667 392-7.472 5.6a52.289 52.289 0 0 1 -31.195 10.4 68.407 68.407 0 0 0 -40.8 13.6l-16 12a6.7 6.7 0 0 0 -.687.574l-6.185 5.826h25.006l7.471-5.6a52.289 52.289 0 0 1 31.195-10.4 68.407 68.407 0 0 0 40.8-13.6l15.789-11.843 9.361-6.557z" fill="#d38e14"/><path d="m150.427 210.477a112.772 112.772 0 0 0 -3.558 12.387l210.746 72.009c1.408-3.06 2.739-6.176 3.888-9.412a111.478 111.478 0 0 0 6.34-39.836l-207.243-56.35a112.34 112.34 0 0 0 -10.173 21.202z" fill="#b9b9b9"/><circle cx="255.965" cy="247.969" fill="#ebebeb" r="48"/><path d="m298.813 127.354a128 128 0 0 0 -163.463 77.767l75.384 26.78a48 48 0 0 1 90.466 32.137l75.384 26.78a128 128 0 0 0 -77.771-163.464z" fill="#4298d1"/></svg>